<svg xmlns="http://www.w3.org/2000/svg" width="122.375" height="198.906" viewBox="0 0 122.375 198.906"><path clip-rule="evenodd" fill="none" stroke="#000" stroke-width="1.5" stroke-linejoin="round" d="M61.33 52.096c-.188.146-.32.223-.542.39-14.08 10.458-30.506 30.862-32.19 56.298-.802 12.1 5.85 20.477 14.448 20.658 5.488.117 9.902-2.15 12.293-6.484 1.987-3.605 2.495-9.162 2.817-6.594 1.158 9.795-2.37 19.21-4.275 27.432 2.127-.898 4.8-1.352 7.477-1.36h.044c2.674.01 5.342.462 7.467 1.36-1.905-8.223-5.425-17.637-4.27-27.432.323-2.568.83 2.988 2.814 6.594 2.39 4.334 6.803 6.602 12.293 6.484 8.598-.182 15.248-8.56 14.447-20.658-1.684-25.436-18.11-45.84-32.18-56.297-.152-.133-.28-.25-.51-.39h-.133z"/><path d="M38.106 114.75c-.014-.204-.02-.403-.02-.6 0-4.757 3.69-8.755 8.5-9.07.25-.017.498-.022.744-.022 5.877 0 10.818 4.564 11.207 10.512.018.277-.19.514-.467.53-.275.02-.514-.19-.53-.466-.353-5.418-4.86-9.578-10.21-9.578-.227 0-.45.008-.678.023-4.28.276-7.566 3.84-7.566 8.07 0 .175.006.353.018.534.22 3.37 3.023 5.96 6.354 5.96.14 0 .28-.005.422-.015 2.646-.17 4.676-2.374 4.676-4.985 0-.11-.004-.22-.012-.33-.133-2.063-1.852-3.648-3.887-3.648-.088 0-.172.002-.258.01-1.6.105-2.825 1.434-2.825 3.01 0 .068.002.13.006.2.08 1.226 1.1 2.165 2.312 2.165l.152-.002c.926-.06 1.64-.834 1.64-1.748 0-.04-.003-.08-.005-.117-.046-.69-.62-1.22-1.3-1.22-.035 0-.06.003-.084.005-.5.033-.883.447-.883.938l.002.053c.025.276-.178.52-.453.544-.275.023-.52-.18-.543-.453-.005-.056-.007-.103-.007-.142 0-1.016.79-1.867 1.8-1.934.067-.008.124-.008.167-.008 1.205 0 2.217.936 2.297 2.16.002.055.004.113.004.176 0 1.44-1.114 2.648-2.585 2.746l-.203.006c-1.734-.002-3.193-1.346-3.307-3.098-.006-.094-.01-.184-.01-.27 0-2.102 1.633-3.867 3.748-4.006.117-.01.23-.012.334-.014 2.563.002 4.715 1.99 4.885 4.586.008.13.014.26.014.393 0 3.137-2.436 5.775-5.613 5.984-.16.007-.32.013-.484.013-3.856 0-7.098-2.994-7.354-6.892zM76.856 121.628c-3.17-.21-5.602-2.846-5.602-5.98 0-.13.004-.266.014-.396.168-2.592 2.318-4.582 4.877-4.582.104 0 .215.002.322.01 2.125.14 3.752 1.906 3.752 4.008 0 .09-.003.176-.01.266-.112 1.754-1.57 3.1-3.302 3.1-.074 0-.143-.002-.217-.006-1.452-.096-2.57-1.305-2.57-2.744 0-.057.003-.123.01-.182.077-1.217 1.087-2.154 2.29-2.154.043 0 .1 0 .152.006 1.025.068 1.813.92 1.813 1.938l-.002.11c-.01.276-.24.493-.516.485-.277-.01-.494-.24-.484-.516l.002-.08c0-.49-.383-.905-.893-.938-.016-.002-.037-.004-.072-.004-.676 0-1.25.53-1.295 1.236-.004.02-.004.057-.004.1 0 .914.714 1.688 1.624 1.746.06.002.115.006.164.004 1.207.002 2.227-.94 2.305-2.16.004-.074.006-.14.006-.205 0-1.577-1.224-2.907-2.827-3.01-.078-.01-.162-.01-.248-.01-2.03 0-3.746 1.585-3.88 3.653-.007.105-.01.215-.01.326 0 2.61 2.026 4.81 4.66 4.98.146.01.286.015.425.015 3.324 0 6.125-2.588 6.344-5.96.01-.18.016-.36.016-.536.002-4.23-3.28-7.792-7.553-8.07-.227-.015-.45-.022-.676-.02-5.34-.002-9.85 4.158-10.198 9.576v.002c-.02.275-.258.484-.53.467-.278-.02-.487-.258-.468-.533.387-5.947 5.328-10.512 11.197-10.512.245 0 .493.006.743.023 4.805.314 8.488 4.313 8.488 9.066 0 .198-.007.397-.02.6-.255 3.9-3.49 6.896-7.34 6.896-.16-.003-.32-.01-.484-.018z"/><path d="M61.407 119.946c-.133 0-.26-.053-.354-.146-.096-.094-.146-.22-.146-.354 0-.078.004-.156.01-.232-.104-1.848-1.637-3.795-2.44-4.637-.276-.295-.448-.453-.45-.453-.145-.133-.2-.336-.14-.523 0-.005.946-2.956 1.655-6.142.486-2.17.863-4.512 1.406-6.47-.217-.76-.45-1.452-.705-2.044-.012-.03-.02-.06-.027-.088-1.01-2.53-3.41-4.146-5.97-4.145-.68 0-1.374.114-2.058.355-2.037.715-3.31 2.627-3.31 4.668 0 .547.09 1.1.284 1.645.557 1.586 2.05 2.58 3.64 2.58.425 0 .856-.07 1.28-.22 1.23-.433 1.998-1.59 1.998-2.82 0-.33-.055-.663-.17-.99-.332-.944-1.217-1.532-2.16-1.532-.252 0-.508.04-.762.13-.713.25-1.156.92-1.158 1.636 0 .19.033.383.1.574.186.527.684.86 1.213.86.143 0 .285-.024.426-.073.382-.135.62-.496.62-.877 0-.102-.016-.205-.053-.31-.094-.265-.342-.427-.605-.43-.07 0-.14.013-.215.038-.17.06-.275.22-.277.39.002.046.01.09.025.138v.002c.092.26-.045.545-.307.637-.26.093-.545-.044-.637-.306-.054-.152-.08-.31-.08-.47 0-.583.364-1.13.944-1.333.18-.062.365-.093.547-.093.68 0 1.312.422 1.55 1.098.074.21.11.428.11.64 0 .798-.497 1.538-1.29 1.82-.25.09-.508.13-.758.13-.943 0-1.824-.59-2.156-1.527-.105-.3-.156-.605-.156-.906 0-1.13.705-2.184 1.828-2.576.36-.13.73-.19 1.092-.19 1.355 0 2.625.847 3.104 2.2.154.438.227.885.227 1.324 0 1.645-1.026 3.184-2.665 3.762-.533.188-1.076.277-1.613.277-2.004 0-3.88-1.253-4.584-3.25-.23-.65-.338-1.32-.338-1.976 0-2.455 1.53-4.75 3.977-5.61.79-.278 1.596-.413 2.39-.413 3.013.003 5.8 1.913 6.935 4.87l.018.053c.098.234.19.48.283.734.117-.297.242-.578.38-.84 1.456-2.787 4.05-4.793 7.028-4.8.743 0 1.505.126 2.267.396 2.445.86 3.977 3.158 3.975 5.61.002.657-.11 1.323-.338 1.978-.703 2-2.578 3.25-4.582 3.247-.537.002-1.082-.088-1.613-.275-1.642-.578-2.667-2.115-2.667-3.762 0-.44.072-.89.227-1.324.477-1.352 1.746-2.2 3.104-2.2.363 0 .732.062 1.094.19 1.123.395 1.824 1.447 1.824 2.576 0 .3-.05.605-.156.906-.33.94-1.21 1.53-2.154 1.527-.254.002-.51-.043-.758-.13-.795-.278-1.29-1.022-1.29-1.82 0-.21.032-.43.11-.64.238-.676.87-1.098 1.55-1.098.18 0 .364.03.544.094.582.208.945.75.945 1.335 0 .158-.027.314-.076.465-.09.26-.373.4-.635.313-.262-.088-.402-.37-.314-.633.02-.055.025-.104.025-.145 0-.17-.105-.332-.28-.39-.07-.026-.138-.038-.21-.038-.264 0-.514.166-.607.434-.035.1-.05.2-.053.306.002.383.24.742.62.875.142.052.288.075.43.075.528 0 1.026-.33 1.21-.857.068-.193.1-.387.1-.576 0-.715-.445-1.385-1.158-1.635-.252-.09-.508-.13-.76-.13-.943 0-1.828.59-2.16 1.532-.115.325-.17.66-.17.99 0 1.23.77 2.386 1.998 2.817.424.148.855.22 1.28.22 1.59 0 3.083-.993 3.64-2.58.19-.546.28-1.1.28-1.644 0-2.04-1.27-3.953-3.306-4.668-.66-.232-1.305-.338-1.934-.338-2.502-.006-4.81 1.717-6.145 4.264-.287.542-.533 1.224-.758 1.997.547 1.963.986 4.256 1.477 6.46.672 3.02 1.557 5.83 1.648 6.118.08.197.027.426-.14.568 0 0-.183.158-.476.453-.292.295-.685.72-1.073 1.227-.736.957-1.438 2.21-1.512 3.406.004.073.008.15.008.226 0 .133-.05.26-.146.354-.094.094-.22.146-.354.146h-.016zm.022-2.748c.745-1.72 2.093-3.072 2.647-3.592-.256-.826-1.002-3.3-1.588-5.943-.345-1.557-.67-3.148-1.013-4.62-.324 1.476-.62 3.09-.96 4.632-.587 2.64-1.33 5.11-1.587 5.94.522.52 1.792 1.87 2.5 3.583zM71.032 80.567c-1.797 0-3.602-.646-5.027-1.957-1.3-1.19-1.963-2.826-1.963-4.463 0-1.46.527-2.928 1.594-4.088.973-1.064 2.307-1.605 3.643-1.605 1.188 0 2.39.432 3.34 1.3.87.8 1.313 1.894 1.312 2.99.002.976-.354 1.96-1.064 2.737-.658.72-1.563 1.086-2.465 1.084-.807 0-1.62-.29-2.258-.88-.598-.544-.902-1.294-.9-2.044-.002-.668.24-1.344.73-1.873.456-.5 1.083-.755 1.71-.755.557 0 1.12.203 1.566.61.42.384.636.915.636 1.442 0 .47-.172.945-.514 1.322-.328.354-.78.536-1.23.536-.4 0-.804-.145-1.122-.438-.205-.186-.22-.502-.03-.705.187-.205.5-.22.706-.03.127.116.285.173.447.173.182 0 .36-.07.49-.215.17-.185.252-.413.252-.644-.002-.262-.104-.516-.31-.705-.257-.233-.573-.345-.892-.347-.36.002-.71.143-.975.43-.313.34-.465.766-.465 1.197 0 .482.19.957.576 1.31.448.41 1.013.614 1.58.614.638 0 1.265-.256 1.728-.758.54-.59.803-1.326.803-2.064 0-.828-.33-1.648-.987-2.25-.762-.697-1.713-1.04-2.664-1.04-1.07 0-2.13.43-2.907 1.28-.893.97-1.33 2.19-1.33 3.412 0 1.37.55 2.73 1.64 3.727 1.237 1.136 2.794 1.694 4.35 1.694 1.745 0 3.48-.703 4.75-2.088 1.44-1.572 2.15-3.55 2.15-5.523 0-2.213-.892-4.414-2.65-6.03v.003c-.202-.188-.218-.504-.03-.707.186-.206.504-.22.707-.032 1.973 1.81 2.975 4.285 2.973 6.766.002 2.213-.8 4.438-2.412 6.2-1.464 1.597-3.472 2.41-5.48 2.41l-.008.003zM46.17 78.155c-1.614-1.762-2.413-3.986-2.41-6.2-.003-2.48 1-4.956 2.972-6.765h.002c.203-.186.52-.174.705.03.187.204.173.52-.03.706-1.76 1.613-2.65 3.814-2.652 6.03.002 1.974.71 3.95 2.15 5.522 1.27 1.387 3.008 2.088 4.754 2.088 1.557 0 3.117-.56 4.357-1.693 1.09-.998 1.64-2.357 1.64-3.727 0-1.22-.44-2.44-1.33-3.412-.78-.85-1.842-1.277-2.914-1.28-.955.003-1.908.343-2.666 1.038-.658.604-.99 1.424-.99 2.252 0 .738.264 1.475.803 2.063.463.506 1.092.76 1.73.76.567 0 1.134-.2 1.587-.615.383-.352.574-.828.576-1.31-.002-.43-.154-.856-.467-1.198-.263-.285-.618-.428-.978-.428-.322 0-.64.113-.893.348-.21.19-.312.445-.314.705.002.23.082.458.252.644.133.145.31.215.492.215.162 0 .322-.058.45-.177.206-.186.522-.17.708.033.186.205.17.52-.033.707-.318.29-.725.438-1.125.436-.447 0-.9-.183-1.23-.54-.343-.373-.515-.85-.515-1.32 0-.53.215-1.06.637-1.443.443-.406 1.01-.61 1.568-.61.627 0 1.256.255 1.713.753.486.53.73 1.205.73 1.875 0 .75-.305 1.5-.902 2.047-.64.586-1.454.877-2.26.877-.903 0-1.81-.366-2.468-1.083-.713-.78-1.066-1.764-1.066-2.74 0-1.096.445-2.19 1.316-2.988.947-.872 2.15-1.302 3.342-1.302 1.338 0 2.676.54 3.65 1.604 1.066 1.16 1.594 2.63 1.594 4.088 0 1.637-.662 3.27-1.967 4.465-1.43 1.307-3.235 1.955-5.03 1.955-2.013-.003-4.022-.815-5.49-2.415zM43.456 95.137c-2.37-.78-3.873-2.984-3.873-5.352 0-.586.092-1.182.285-1.766.64-1.94 2.44-3.17 4.377-3.17.48 0 .967.075 1.445.235 1.594.525 2.604 2.004 2.602 3.596 0 .396-.06.794-.19 1.19-.437 1.315-1.657 2.147-2.974 2.147-.326 0-.656-.05-.98-.156-1.096-.362-1.79-1.378-1.79-2.474 0-.27.044-.547.134-.816.303-.916 1.154-1.498 2.072-1.498.227 0 .46.035.686.11.775.257 1.268.978 1.268 1.755 0 .19-.03.385-.092.576-.086.262-.37.406-.63.32-.265-.088-.407-.37-.32-.63.028-.09.042-.18.042-.267 0-.355-.227-.69-.584-.807-.123-.042-.246-.06-.37-.06-.495 0-.96.314-1.122.814-.057.166-.082.334-.082.5 0 .674.428 1.303 1.102 1.523.223.074.447.107.668.107.895 0 1.73-.566 2.023-1.46.096-.294.14-.587.14-.876 0-1.17-.74-2.262-1.913-2.646-.38-.125-.758-.184-1.133-.184-1.514 0-2.926.96-3.426 2.48-.16.482-.235.97-.235 1.453 0 1.946 1.236 3.76 3.186 4.403.616.203 1.243.3 1.858.3 2.484 0 4.8-1.577 5.62-4.065.26-.785.384-1.58.384-2.36-.002-3.16-2.006-6.103-5.17-7.147-.994-.327-2-.48-2.99-.48-4.002 0-7.73 2.538-9.053 6.546-.087.264-.368.406-.632.318-.262-.086-.404-.367-.318-.63 1.463-4.43 5.578-7.235 10.002-7.235 1.094 0 2.207.17 3.303.532 3.584 1.184 5.857 4.516 5.857 8.096 0 .887-.14 1.787-.434 2.674-.96 2.908-3.664 4.754-6.57 4.754-.723.003-1.453-.11-2.172-.35zM70.665 90.735c-.295-.887-.434-1.79-.434-2.676 0-3.58 2.27-6.91 5.85-8.095 1.093-.36 2.204-.533 3.296-.533 4.416 0 8.525 2.807 9.986 7.234.086.264-.057.545-.318.633-.264.085-.547-.058-.633-.32-1.317-4.01-5.04-6.548-9.034-6.55-.988.002-1.992.156-2.982.484-3.158 1.043-5.162 3.986-5.162 7.145 0 .78.12 1.575.383 2.362.818 2.488 3.13 4.064 5.61 4.066.614-.002 1.237-.098 1.853-.3 1.947-.644 3.18-2.456 3.18-4.4 0-.483-.076-.974-.234-1.456-.5-1.52-1.91-2.48-3.42-2.48-.375 0-.754.06-1.13.184-1.17.385-1.91 1.477-1.91 2.646 0 .29.044.584.14.875.295.896 1.127 1.463 2.02 1.463.22 0 .443-.035.666-.11.672-.22 1.1-.85 1.1-1.52 0-.166-.027-.338-.082-.504-.162-.498-.627-.813-1.12-.813-.124 0-.247.018-.37.06-.355.116-.58.448-.582.804.002.09.014.176.043.262.087.26-.052.544-.314.634-.262.088-.545-.053-.635-.313-.065-.194-.095-.394-.095-.583 0-.775.492-1.496 1.266-1.752.228-.076.46-.11.687-.11.916-.003 1.768.58 2.072 1.5.085.27.13.544.13.815 0 1.094-.693 2.11-1.787 2.473-.324.105-.654.156-.98.156-1.313 0-2.534-.835-2.968-2.15-.13-.392-.19-.794-.19-1.187 0-1.592 1.007-3.07 2.597-3.596.477-.158.965-.234 1.443-.234 1.934 0 3.73 1.23 4.37 3.168.192.585.284 1.18.284 1.77 0 2.364-1.5 4.567-3.866 5.35-.72.235-1.45.35-2.166.35-2.905 0-5.604-1.847-6.563-4.755zM67.765 153.753c-.52 0-1.05-.088-1.566-.27-1.554-.56-2.522-2.022-2.522-3.585 0-.428.07-.863.225-1.285.46-1.285 1.67-2.086 2.96-2.086.353 0 .714.06 1.064.186 1.068.385 1.732 1.39 1.732 2.463 0 .293-.05.592-.153.885-.322.896-1.166 1.454-2.066 1.454-.245 0-.495-.043-.737-.13-.758-.272-1.23-.983-1.23-1.745 0-.208.033-.425.11-.628.23-.646.84-1.05 1.49-1.05.175 0 .358.03.534.095.56.2.906.725.906 1.285 0 .154-.027.31-.08.463-.088.24-.242.436-.436.572.254-.135.463-.36.566-.65.066-.186.096-.37.096-.55 0-.663-.41-1.286-1.07-1.522-.24-.086-.485-.127-.726-.127-.88 0-1.707.545-2.02 1.424-.113.313-.166.63-.166.947 0 1.15.713 2.23 1.86 2.642.405.145.82.213 1.228.213 1.488 0 2.89-.922 3.422-2.406.186-.524.273-1.056.273-1.577 0-1.916-1.185-3.713-3.09-4.393-.26-.094-.395-.38-.304-.64.094-.26.38-.397.64-.304 2.315.83 3.757 3.01 3.755 5.336.003.635-.106 1.28-.33 1.914-.683 1.89-2.462 3.068-4.362 3.068h-.003zm-1.246-4.4c-.034.09-.05.187-.05.284 0 .143.035.28.104.406 0-.053.01-.105.027-.156.093-.262.378-.396.64-.305.02.006.045.01.066.01.08 0 .156-.05.182-.12.016-.05.023-.09.023-.132 0-.15-.093-.293-.245-.346-.066-.023-.13-.033-.195-.033-.24.002-.464.148-.55.394z"/><path d="M73.603 146.67c-1.395 0-2.797-.513-3.89-1.546-.202-.19-.21-.506-.02-.707.19-.2.506-.21.707-.02.902.852 2.05 1.27 3.203 1.27 1.24 0 2.475-.487 3.395-1.46.664-.705.992-1.6.992-2.496 0-.966-.38-1.927-1.14-2.642-.544-.514-1.233-.766-1.927-.768-.748.002-1.488.295-2.04.883-.394.416-.587.94-.587 1.47 0 .57.225 1.138.674 1.564.313.295.707.44 1.107.44.432 0 .857-.17 1.178-.507.213-.227.32-.51.324-.8-.036.23-.14.46-.315.645-.268.28-.63.428-.992.426-.334.003-.674-.122-.938-.37-.33-.31-.498-.734-.498-1.152 0-.39.146-.783.432-1.086.362-.387.858-.584 1.35-.582.456-.002.917.168 1.274.506.453.43.686 1.012.686 1.596.002.537-.197 1.082-.598 1.506-.516.54-1.21.82-1.904.818-.643.002-1.29-.236-1.795-.713-.654-.62-.986-1.457-.986-2.29 0-.772.285-1.552.857-2.157.748-.793 1.76-1.195 2.77-1.195.938 0 1.88.35 2.615 1.042.962.908 1.45 2.14 1.45 3.37 0 1.14-.42 2.286-1.266 3.183-1.113 1.176-2.615 1.773-4.117 1.773h-.004zm.394-6.17c-.11.114-.158.255-.16.4.002.155.06.308.184.425.073.066.16.098.253.098.096 0 .193-.037.268-.113.036-.04.054-.084.054-.133 0-.053-.02-.104-.063-.143-.198-.19-.206-.506-.017-.707.04-.04.082-.072.13-.096h-.022c-.23 0-.453.09-.623.27z"/><path d="M80.206 150.98c-.803.003-1.607-.323-2.193-.96-.438-.477-.656-1.082-.656-1.682-.002-.67.27-1.342.803-1.83.4-.367.908-.553 1.412-.55.563-.003 1.127.228 1.54.675.31.336.466.77.464 1.195.002.477-.193.955-.57 1.305-.29.266-.662.4-1.027.4-.41 0-.82-.168-1.116-.488-.23-.252-.348-.574-.348-.89 0-.353.143-.712.424-.966.05-.048.105-.09.162-.126-.094.045-.182.105-.264.18-.32.293-.48.69-.482 1.094.002.36.13.717.395 1.004.392.424.923.64 1.458.64.482 0 .96-.173 1.342-.522.557-.516.838-1.213.84-1.916-.002-.63-.227-1.258-.686-1.76-.668-.727-1.574-1.09-2.486-1.092-.818 0-1.635.295-2.285.893l.002.002c-.205.186-.52.174-.707-.03-.188-.204-.176-.52.03-.706.837-.772 1.9-1.157 2.96-1.155 1.178-.002 2.36.475 3.223 1.414.636.688.95 1.565.95 2.435 0 .97-.393 1.94-1.164 2.652-.57.525-1.295.785-2.012.785h-.008zm-.592-3.052c-.064.06-.098.14-.1.227.002.076.027.15.084.213.025.025.053.05.08.07-.035-.166.014-.346.145-.47.01-.01.012-.017.012-.022-.002-.006-.002-.01-.004-.012-.034-.035-.07-.05-.11-.05-.037 0-.07.013-.106.044zM50.694 150.67c-.23-.634-.334-1.28-.334-1.915 0-2.328 1.44-4.506 3.756-5.336.258-.093.545.04.64.3.093.262-.044.547-.304.64-1.904.685-3.092 2.48-3.092 4.396 0 .52.088 1.053.275 1.576.53 1.484 1.932 2.406 3.424 2.406.405 0 .82-.068 1.226-.213 1.145-.41 1.86-1.492 1.86-2.645 0-.314-.056-.635-.167-.947-.315-.877-1.142-1.422-2.02-1.422-.243 0-.485.04-.728.13-.66.234-1.07.857-1.07 1.52 0 .182.03.363.096.547.104.29.31.516.564.65-.19-.135-.346-.33-.432-.568-.055-.153-.082-.312-.082-.464 0-.56.35-1.086.9-1.285.18-.065.365-.095.54-.095.65 0 1.26.404 1.49 1.05.075.204.11.417.11.626.002.763-.47 1.476-1.23 1.75-.242.083-.49.126-.738.126-.9 0-1.742-.557-2.064-1.45-.105-.294-.154-.593-.154-.886 0-1.074.664-2.078 1.73-2.46.352-.13.713-.19 1.066-.19 1.29 0 2.498.802 2.96 2.085.15.422.224.857.224 1.285 0 1.563-.967 3.027-2.52 3.586-.517.184-1.046.27-1.564.27-1.9.003-3.682-1.177-4.364-3.067zm5.528-.796c.018.05.025.102.027.152.065-.123.1-.264.1-.406 0-.096-.015-.193-.048-.287-.086-.24-.313-.39-.55-.39-.067 0-.13.013-.198.036-.15.054-.242.194-.244.345 0 .04.008.082.023.125.025.078.102.127.182.127.02 0 .043-.004.072-.012.053-.02.11-.03.162-.03.208 0 .4.132.472.34z"/><path d="M45.095 144.878c-.842-.895-1.264-2.04-1.262-3.182-.002-1.23.486-2.46 1.45-3.37.735-.694 1.68-1.04 2.614-1.04 1.01 0 2.02.402 2.77 1.193.574.606.86 1.386.86 2.16 0 .833-.335 1.67-.987 2.288-.506.477-1.154.713-1.797.713-.693 0-1.39-.276-1.902-.82-.4-.42-.6-.966-.6-1.505 0-.58.23-1.166.69-1.594.356-.337.817-.507 1.272-.507.49 0 .984.197 1.35.582.287.305.432.7.432 1.088 0 .418-.168.84-.498 1.152-.262.248-.604.37-.936.37-.363 0-.727-.144-.994-.427-.176-.184-.28-.412-.314-.646.004.29.11.574.326.803.318.336.746.504 1.176.506.4 0 .797-.145 1.11-.438.446-.426.67-.992.673-1.563-.002-.532-.193-1.058-.586-1.474-.554-.586-1.294-.88-2.042-.88-.69 0-1.383.253-1.926.767-.758.715-1.14 1.676-1.14 2.643 0 .896.33 1.79.99 2.494.92.973 2.155 1.463 3.396 1.463 1.152 0 2.303-.42 3.205-1.273v.002c.2-.19.516-.182.707.02.19.2.18.516-.02.705-1.094 1.033-2.498 1.547-3.893 1.547-1.5 0-3.007-.6-4.122-1.776zm3.217-4.563c.19.2.178.518-.025.705-.037.037-.057.084-.057.14 0 .048.016.095.05.132.073.076.17.115.27.115.093-.002.18-.03.25-.098.124-.12.185-.272.185-.427 0-.145-.05-.287-.158-.4-.172-.18-.395-.27-.623-.27h-.023c.048.026.092.06.132.102z"/><path d="M40.597 150.18c-.77-.71-1.164-1.684-1.162-2.652 0-.87.314-1.746.95-2.436.86-.94 2.042-1.416 3.222-1.416 1.057 0 2.12.385 2.96 1.156v.002c.204.186.218.502.03.705-.188.202-.504.216-.705.028-.652-.598-1.467-.89-2.285-.893-.914.002-1.82.367-2.486 1.092-.46.502-.685 1.13-.687 1.76.002.703.283 1.4.842 1.916.38.35.86.52 1.34.52.535 0 1.066-.214 1.46-.638.263-.287.39-.645.39-1.004 0-.4-.16-.8-.48-1.093-.08-.076-.17-.137-.267-.182.057.035.11.078.162.123.28.258.426.613.424.967.002.316-.113.64-.346.89-.3.323-.707.49-1.115.49-.367 0-.736-.134-1.025-.4-.38-.35-.574-.827-.572-1.304-.002-.425.154-.856.467-1.196.41-.447.977-.676 1.537-.676.504 0 1.014.184 1.412.553.53.49.805 1.16.803 1.83.002.6-.217 1.206-.656 1.683-.587.635-1.392.96-2.194.96-.72.003-1.447-.257-2.02-.783zm2.394-2.26c-.003.005-.003.007-.003.01 0 .007 0 .01.008.02.135.124.184.306.148.472.027-.02.055-.043.08-.07.055-.06.08-.135.082-.213-.002-.087-.035-.17-.102-.23-.03-.027-.064-.04-.102-.04-.04 0-.078.014-.11.05zM57.7 53.92c-1.504 0-3.01-.6-4.123-1.778-.844-.895-1.264-2.04-1.264-3.182 0-1.23.488-2.46 1.453-3.37.734-.692 1.676-1.04 2.61-1.04 1.01 0 2.024.402 2.772 1.195.572.605.86 1.385.857 2.158.002.834-.332 1.67-.984 2.29-.505.476-1.153.714-1.796.712-.695.002-1.39-.275-1.904-.818-.398-.424-.598-.967-.598-1.506 0-.58.23-1.165.688-1.593.355-.34.816-.51 1.273-.508.49-.003.984.194 1.348.58.29.306.435.698.433 1.087.002.42-.166.84-.494 1.152-.265.247-.605.372-.94.372-.36 0-.727-.146-.994-.43-.174-.184-.277-.41-.313-.645.006.29.11.574.326.8.317.337.743.507 1.175.51.4-.003.795-.147 1.107-.442.45-.424.674-.99.674-1.563 0-.53-.19-1.057-.584-1.473-.555-.587-1.295-.88-2.045-.88-.69 0-1.38.252-1.926.766-.757.715-1.136 1.676-1.138 2.643.002.897.328 1.79.992 2.495.918.973 2.154 1.463 3.395 1.463 1.15 0 2.3-.422 3.204-1.273.2-.19.516-.182.705.02.19.2.18.518-.02.707-1.093 1.033-2.493 1.547-3.888 1.547H57.7zm-.906-6.34c.188.2.178.517-.023.706-.04.037-.06.084-.06.14 0 .048.018.093.053.132.074.076.17.115.268.115.095-.002.183-.033.253-.098.123-.12.182-.27.184-.428-.002-.146-.053-.287-.16-.4-.17-.18-.393-.268-.62-.268h-.022c.045.025.09.058.13.1z"/><path d="M51.097 58.23c-.72 0-1.447-.26-2.018-.786-.772-.71-1.165-1.682-1.165-2.652 0-.87.316-1.746.95-2.436.862-.938 2.044-1.416 3.222-1.414 1.06-.002 2.123.383 2.963 1.154.203.19.215.504.027.707-.186.203-.502.217-.705.03-.65-.6-1.465-.892-2.285-.892-.912 0-1.818.366-2.484 1.09-.46.503-.686 1.13-.688 1.76.002.706.283 1.4.84 1.917.383.35.86.52 1.342.523.537-.002 1.066-.215 1.457-.64.264-.288.393-.644.393-1.005 0-.402-.16-.8-.48-1.094-.082-.075-.172-.136-.266-.18.058.036.112.077.165.124.28.258.424.613.422.967.002.315-.113.638-.348.892-.298.32-.708.488-1.114.488-.365 0-.736-.133-1.027-.4-.378-.348-.573-.828-.573-1.303 0-.428.156-.86.467-1.197.41-.447.977-.678 1.54-.676.5 0 1.013.184 1.41.55.532.49.804 1.16.804 1.83 0 .6-.22 1.206-.656 1.683-.584.635-1.39.96-2.19.96l-.005.002zm.377-3.048c-.006.006-.006.008-.006.014.002.006.002.008.008.016.135.123.186.307.15.475.027-.02.055-.045.078-.07.057-.063.082-.135.082-.213 0-.086-.033-.168-.1-.23-.03-.027-.064-.04-.102-.04-.042 0-.08.015-.11.048zM61.136 52.32c-.2-.188-.21-.505-.02-.706.19-.2.506-.21.705-.02.903.852 2.054 1.273 3.206 1.273 1.24 0 2.475-.49 3.395-1.463.665-.705.99-1.598.993-2.496-.002-.965-.38-1.926-1.14-2.64-.544-.517-1.233-.77-1.925-.77-.75 0-1.49.296-2.043.882-.395.416-.586.94-.586 1.47 0 .573.224 1.138.673 1.564.313.297.707.44 1.11.44.43 0 .854-.17 1.173-.505.215-.23.322-.517.326-.81-.033.236-.137.467-.313.652-.27.28-.634.428-.995.428-.336 0-.676-.125-.938-.373-.33-.31-.498-.732-.498-1.15 0-.39.144-.785.433-1.088.363-.388.857-.583 1.348-.583.458 0 .92.168 1.276.508.453.428.686 1.012.686 1.594.002.538-.2 1.08-.598 1.505-.516.543-1.21.82-1.902.82-.645 0-1.293-.238-1.797-.713-.656-.62-.988-1.457-.988-2.29 0-.774.287-1.554.86-2.157.747-.795 1.76-1.195 2.77-1.195.936 0 1.877.346 2.61 1.04.966.91 1.456 2.14 1.454 3.368.003 1.14-.42 2.29-1.265 3.184-1.113 1.178-2.62 1.775-4.12 1.775-1.393 0-2.796-.513-3.89-1.546zM65.42 47.7c-.106.113-.157.254-.16.4.003.154.062.307.185.424.072.066.16.1.252.1.098 0 .193-.037.266-.113.037-.04.055-.085.055-.136 0-.05-.02-.104-.06-.143-.202-.188-.21-.505-.02-.704.038-.04.08-.072.128-.098h-.023c-.23 0-.452.09-.622.27z"/><path d="M71.632 58.18c-.805.002-1.61-.324-2.195-.963-.438-.475-.656-1.08-.656-1.682 0-.668.272-1.342.804-1.828.4-.37.91-.553 1.414-.553.56 0 1.125.23 1.537.676.313.338.467.77.467 1.197 0 .477-.195.955-.572 1.303-.29.268-.662.4-1.027.4-.408 0-.818-.166-1.113-.488-.232-.252-.35-.574-.348-.89-.002-.353.143-.71.424-.966.05-.047.105-.09.164-.125-.096.046-.186.106-.27.183-.318.293-.48.69-.48 1.092 0 .36.13.717.394 1.006.39.425.92.64 1.46.64.48 0 .956-.172 1.337-.52.56-.517.84-1.214.843-1.917-.002-.63-.227-1.26-.688-1.76-.668-.727-1.572-1.09-2.484-1.092-.817 0-1.634.296-2.284.894h.002c-.203.186-.52.174-.707-.03-.187-.202-.175-.52.03-.706.838-.773 1.902-1.156 2.96-1.156 1.18 0 2.36.477 3.224 1.414.635.69.95 1.566.95 2.438 0 .97-.396 1.94-1.165 2.652-.57.523-1.296.785-2.013.785h-.005zm-.594-3.054c-.066.06-.098.14-.1.227.002.078.027.15.084.213.025.027.05.05.08.07-.037-.166.014-.346.146-.47.008-.01.008-.017.01-.02-.002-.01-.002-.01-.006-.013-.033-.037-.068-.05-.11-.05-.036.002-.07.01-.104.043z"/><path fill-rule="evenodd" clip-rule="evenodd" stroke="#000" stroke-width=".455" stroke-linejoin="round" d="M61.41 55.442C45.014 68.014 47.13 72.08 47.13 72.08s13.947-16.765 28.06-.185c0 0 2.622-3.88-13.78-16.453zM84.07 84.075s13.315 23.592 4.874 37.215c-7.15 11.54-22.75 2.764-20.64-6.338 0 0 1.952 9.752 11.538 9.102 0 0 10.367-.842 7.64-13.326-.208-.945-2.6-8.615-10.564-9.59 0 0 8.776-.49 7.15-17.063zM38.88 84.075s-13.316 23.592-4.875 37.215c7.148 11.54 23.162 3.787 20.637-6.338 0 0-1.95 9.752-11.537 9.102 0 0-10.367-.842-7.64-13.326.208-.945 2.603-8.615 10.564-9.59-.002 0-8.775-.49-7.15-17.063zM61.524 72.7s.977 12.463 7.8 9.863c0 0-2.923 3.785-.812 8.336 0 0-6.64.294-6.803 4.52h-.21c-.162-4.226-7.172-4.52-7.172-4.52 2.113-4.552-.813-8.337-.813-8.337 6.826 2.6 7.8-9.863 7.8-9.863h.21z"/><circle fill-rule="evenodd" clip-rule="evenodd" stroke="#000" stroke-width=".455" stroke-linejoin="round" cx="45.024" cy="89.053" r="1.189"/><circle fill-rule="evenodd" clip-rule="evenodd" stroke="#000" stroke-width=".455" stroke-linejoin="round" cx="52.86" cy="73.241" r="1.189"/><circle fill-rule="evenodd" clip-rule="evenodd" stroke="#000" stroke-width=".455" stroke-linejoin="round" cx="69.79" cy="73.288" r="1.189"/><circle fill-rule="evenodd" clip-rule="evenodd" stroke="#000" stroke-width=".455" stroke-linejoin="round" cx="77.718" cy="89.007" r="1.189"/><circle fill-rule="evenodd" clip-rule="evenodd" stroke="#000" stroke-width=".455" stroke-linejoin="round" cx="45.9" cy="114.948" r="1.19"/><circle fill-rule="evenodd" clip-rule="evenodd" stroke="#000" stroke-width=".455" stroke-linejoin="round" cx="76.933" cy="114.948" r="1.189"/><circle fill-rule="evenodd" clip-rule="evenodd" stroke="#000" stroke-width=".346" stroke-linejoin="round" cx="53.14" cy="100.374" r=".904"/><circle fill-rule="evenodd" clip-rule="evenodd" stroke="#000" stroke-width=".346" stroke-linejoin="round" cx="69.795" cy="100.438" r=".903"/><circle fill-rule="evenodd" clip-rule="evenodd" stroke="#000" stroke-width=".346" stroke-linejoin="round" cx="52.922" cy="92.343" r="1.196"/><circle fill-rule="evenodd" clip-rule="evenodd" stroke="#000" stroke-width=".346" stroke-linejoin="round" cx="69.904" cy="92.343" r="1.196"/><circle fill-rule="evenodd" clip-rule="evenodd" stroke="#000" stroke-width=".263" stroke-linejoin="round" cx="61.509" cy="97.137" r=".91"/><circle fill-rule="evenodd" clip-rule="evenodd" stroke="#000" stroke-width=".263" stroke-linejoin="round" cx="52.1" cy="81.936" r=".909"/><circle fill-rule="evenodd" clip-rule="evenodd" stroke="#000" stroke-width=".263" stroke-linejoin="round" cx="70.863" cy="81.798" r=".909"/><circle fill-rule="evenodd" clip-rule="evenodd" stroke="#000" stroke-width=".263" stroke-linejoin="round" cx="61.207" cy="69.678" r="2.122"/><path d="M28.075 87.612c-1.793-.734-2.88-2.465-2.877-4.29 0-.585.11-1.18.346-1.753.604-1.476 2.025-2.37 3.523-2.368.482 0 .97.092 1.443.285 1.217.498 1.955 1.672 1.953 2.91 0 .398-.076.803-.234 1.193-.415 1.012-1.394 1.625-2.425 1.625-.33 0-.666-.063-.99-.195-.848-.348-1.363-1.166-1.36-2.03-.003-.276.052-.56.163-.83.293-.718.984-1.153 1.717-1.153.234 0 .473.045.7.14.614.25.985.843.985 1.466 0 .2-.04.402-.12.6-.216.53-.726.85-1.263.848-.174 0-.35-.032-.518-.1-.237-.097-.425-.26-.554-.46.123.26.34.48.627.596.2.082.408.12.61.12.64 0 1.243-.378 1.5-1.003.108-.268.16-.543.16-.814 0-.847-.503-1.647-1.333-1.985-.35-.145-.71-.21-1.064-.21-1.105 0-2.154.657-2.6 1.745-.184.45-.27.914-.27 1.373 0 1.432.85 2.79 2.26 3.367.577.236 1.177.348 1.765.348 1.84 0 3.585-1.094 4.323-2.9.105-.256.396-.38.652-.273.256.105.38.396.273.652-.898 2.193-3.014 3.52-5.248 3.52-.713 0-1.442-.138-2.145-.425zm1.05-5.482c.253.107.372.4.265.654-.008.02-.012.043-.012.07 0 .074.045.148.12.178.046.02.093.03.14.03.143-.003.283-.09.338-.228.03-.076.045-.15.045-.223 0-.23-.136-.448-.362-.54-.107-.045-.215-.064-.322-.064-.13 0-.258.03-.373.086.054.004.108.016.16.038z"/><path d="M27.1 94.45c-.31 0-.624-.05-.93-.15-1.52-.5-2.48-1.906-2.478-3.422 0-.373.06-.752.18-1.125.607-1.84 2.318-3.01 4.156-3.008.455 0 .916.07 1.37.22.263.09.405.37.317.632-.086.262-.37.404-.63.318-.353-.115-.706-.17-1.058-.17-1.416 0-2.738.9-3.205 2.322-.09.27-.13.543-.133.81 0 1.095.694 2.112 1.79 2.474.205.067.412.1.62.1.83 0 1.606-.528 1.88-1.362.05-.154.074-.31.074-.465 0-.623-.396-1.205-1.02-1.408-.104-.035-.207-.05-.31-.055.063.01.128.025.19.045.553.184.904.695.904 1.248 0 .135-.02.273-.068.41-.21.637-.8 1.043-1.44 1.04-.155 0-.315-.022-.472-.075-.746-.244-1.22-.936-1.217-1.68 0-.186.028-.37.09-.553.288-.88 1.104-1.438 1.98-1.436.218-.003.44.032.655.103 1.043.346 1.707 1.314 1.707 2.36 0 .257-.04.52-.125.776-.414 1.253-1.576 2.05-2.828 2.05zm.315-3.197l-.002.004c.002.006.006.018.016.02.175.06.296.203.33.37.02-.028.034-.062.046-.097.01-.033.016-.066.016-.098 0-.13-.086-.256-.217-.297-.018-.006-.03-.008-.047-.008-.063 0-.12.04-.143.106zM87.423 84.514h.002c-.105-.256.016-.55.27-.652.257-.104.548.018.653.273.738 1.807 2.482 2.9 4.322 2.9.588 0 1.186-.11 1.768-.348 1.404-.576 2.256-1.936 2.256-3.367 0-.457-.086-.924-.27-1.373-.445-1.088-1.494-1.746-2.602-1.746-.355 0-.713.067-1.063.212-.83.338-1.333 1.14-1.335 1.986 0 .27.05.543.162.813.256.626.86 1.005 1.498 1.005.2 0 .408-.04.61-.12.286-.118.503-.333.626-.593-.128.197-.315.36-.552.457-.166.065-.342.1-.516.1-.537 0-1.047-.32-1.264-.847-.082-.197-.12-.404-.12-.602 0-.624.372-1.214.983-1.466.23-.094.47-.14.704-.14.732 0 1.424.437 1.72 1.157.108.27.16.55.16.827 0 .865-.51 1.682-1.362 2.033-.322.13-.658.193-.988.193-1.03.002-2.008-.613-2.422-1.623-.162-.39-.238-.797-.236-1.193-.002-1.24.736-2.414 1.953-2.912.47-.193.96-.285 1.44-.285 1.502-.002 2.922.893 3.527 2.367.232.572.344 1.168.344 1.752.003 1.825-1.085 3.556-2.878 4.29-.703.287-1.43.424-2.145.424-2.23.004-4.346-1.326-5.244-3.52zm5.812-2.443c-.227.093-.36.312-.363.542 0 .074.014.145.043.22.06.142.197.228.34.228.045 0 .092-.008.14-.025.075-.03.12-.105.12-.182 0-.023-.004-.05-.014-.072-.103-.257.02-.546.276-.65.05-.02.102-.032.154-.036-.115-.057-.242-.086-.373-.086-.107 0-.216.02-.322.063z"/><path d="M92.962 92.4c-.086-.257-.125-.52-.125-.778 0-1.043.662-2.014 1.707-2.36.217-.07.436-.103.652-.103.88 0 1.693.556 1.984 1.435.06.184.09.37.09.553 0 .744-.475 1.434-1.22 1.682-.155.05-.315.076-.474.076-.637 0-1.23-.406-1.438-1.04-.045-.136-.068-.276-.068-.413 0-.553.35-1.066.902-1.246.064-.02.133-.037.2-.047-.105.002-.21.02-.315.055-.625.203-1.02.785-1.02 1.408 0 .154.022.31.073.465.273.834 1.05 1.363 1.88 1.363.206 0 .415-.03.62-.1 1.096-.36 1.79-1.38 1.79-2.472 0-.268-.042-.543-.132-.81-.467-1.423-1.79-2.323-3.205-2.323-.352 0-.705.055-1.057.17-.262.086-.545-.055-.63-.318-.09-.262.054-.543.317-.63.453-.15.914-.222 1.37-.222 1.837 0 3.546 1.168 4.155 3.008.123.373.18.752.18 1.125 0 1.514-.96 2.922-2.475 3.422-.31.102-.623.148-.934.148-1.25.002-2.416-.795-2.828-2.047zm2.324-1.245c-.13.043-.213.164-.215.297 0 .03.005.063.02.098.01.035.024.068.042.098.035-.168.156-.313.33-.37.01 0 .016-.015.016-.02v-.004c-.02-.066-.082-.105-.143-.105-.016-.003-.03 0-.05.005z"/><path stroke="#000" stroke-width=".101" stroke-linecap="round" stroke-linejoin="round" d="M64.15 139.06h-5.7l2.852-12.858z"/><path stroke="#000" stroke-width=".05" stroke-linecap="round" stroke-linejoin="round" d="M62.87 113.58h-2.848l1.426-6.43zM40.415 77.184l1.53-2.402 4.658 4.654zM82.456 77.13l-1.53-2.405-4.657 4.657zM43.823 83.58l1.53-2.402 4.658 4.655zM79.138 83.58l-1.53-2.402-4.658 4.655zM64.96 107.716l2.557-1.252-4.106-5.15zM58.062 107.735l-2.557-1.252 4.105-5.15zM46.315 106.567l1.438 2.46-6.268 2.015zM76.74 106.694l-1.438 2.46 6.27 2.015z"/><path stroke="#000" stroke-width=".024" stroke-linecap="round" stroke-linejoin="round" d="M59.647 121.286h3.64v3.637h-3.64z"/><circle fill-rule="evenodd" clip-rule="evenodd" stroke="#000" stroke-width=".197" stroke-linejoin="round" cx="61.328" cy="51.249" r=".683"/><path fill-rule="evenodd" clip-rule="evenodd" stroke="#000" stroke-width=".025" stroke-linejoin="round" d="M46.255 104.206l-.373-1.143.972-.707.973.707-.37 1.143zM43.33 104.882l-.37-1.145.973-.707.972.707-.37 1.145zM40.567 106.32l-.373-1.143.973-.708.973.707-.37 1.142zM76.386 104.044l.373-1.143-.974-.706-.973.707.372 1.144zM79.31 104.72l.37-1.145-.972-.707-.973.707.37 1.144zM82.073 106.157l.373-1.145-.972-.707-.973.707.372 1.145z"/><circle fill-rule="evenodd" clip-rule="evenodd" stroke="#000" stroke-width=".197" stroke-linejoin="round" cx="57.645" cy="52.571" r=".683"/><circle fill-rule="evenodd" clip-rule="evenodd" stroke="#000" stroke-width=".197" stroke-linejoin="round" cx="65.056" cy="52.55" r=".682"/><circle fill-rule="evenodd" clip-rule="evenodd" stroke="#000" stroke-width=".197" stroke-linejoin="round" cx="30.322" cy="86.837" r=".683"/><circle fill-rule="evenodd" clip-rule="evenodd" stroke="#000" stroke-width=".197" stroke-linejoin="round" cx="92.844" cy="86.745" r=".683"/><circle fill-rule="evenodd" clip-rule="evenodd" stroke="#000" stroke-width=".197" stroke-linejoin="round" cx="48.805" cy="145.145" r=".683"/><circle fill-rule="evenodd" clip-rule="evenodd" stroke="#000" stroke-width=".197" stroke-linejoin="round" cx="74.318" cy="145.157" r=".683"/><path fill-rule="evenodd" clip-rule="evenodd" stroke="#000" stroke-width=".039" stroke-linejoin="round" d="M55.837 141.434l1.418-2.455 1.418 2.454zM64.188 141.413l1.418-2.455 1.418 2.455zM55.98 67.13l1.417 2.455 1.417-2.455zM63.708 67.25l1.42 2.454 1.416-2.455z"/><path stroke="#000" stroke-width=".033" stroke-linecap="round" stroke-linejoin="round" d="M73.573 87.153l-1.78.506 2.032 3.767zM75.536 92.2l.27 1.832 4-1.525zM49.132 87.153l1.78.506-2.032 3.767zM46.98 92.2l-.27 1.832-4-1.525zM50.347 77.087l.27 1.832 4-1.525zM43.847 118.042l.27 1.83 4-1.524zM41.722 113.157l-1.78.506 2.034 3.767zM81.146 112.507l1.78.505-2.034 3.768zM79.642 118.204l-.268 1.832-4-1.526zM72.167 77.087l-.27 1.832-3.998-1.525zM57.747 100.06l1.568-.99-3.01-3.04zM65.347 100.2l-1.57-.988 3.013-3.04z"/><circle fill-rule="evenodd" clip-rule="evenodd" stroke="#000" stroke-width=".263" stroke-linejoin="round" cx="53.037" cy="111.077" r="2.122"/><circle fill-rule="evenodd" clip-rule="evenodd" stroke="#000" stroke-width=".263" stroke-linejoin="round" cx="69.428" cy="111.221" r="2.122"/><circle fill-rule="evenodd" clip-rule="evenodd" stroke="#000" stroke-width=".346" stroke-linejoin="round" cx="45.276" cy="97.565" r="1.197"/><circle fill-rule="evenodd" clip-rule="evenodd" stroke="#000" stroke-width=".346" stroke-linejoin="round" cx="78.188" cy="97.565" r="1.197"/></svg>