<svg xmlns="http://www.w3.org/2000/svg" width="50" height="50" viewBox="0 0 50 50"><path fill-rule="evenodd" clip-rule="evenodd" stroke="#000" stroke-width=".163" stroke-linejoin="round" d="M24.976 3.74c-.103.067-.175.104-.293.18C17.087 8.77 8.227 18.23 7.32 30.026c-.434 5.61 3.154 9.494 7.792 9.58 2.96.053 5.342-1 6.632-3.008 1.072-1.672 1.346-4.248 1.52-3.058.625 4.54-1.276 8.905-2.306 12.72 1.147-.418 2.59-.628 4.033-.633h.025c1.442.005 2.88.215 4.027.632-1.028-3.814-2.927-8.18-2.303-12.72.172-1.19.445 1.385 1.516 3.057 1.29 2.01 3.67 3.06 6.63 3.007 4.64-.085 8.227-3.97 7.795-9.58-.908-11.793-9.77-21.254-17.357-26.103-.083-.06-.155-.098-.274-.18h-.074z"/></svg>