<svg xmlns="http://www.w3.org/2000/svg" width="14.173" height="24.095" viewBox="0 0 14.173 24.095"><path fill="#FC0200" d="M14.223 20.323l-2.276-.01-.01 1.448h-9.56c.05-.332.196-.755.463-1.237.49-.89 1.352-1.938 2.387-2.973 1.036-1.04 2.242-2.078 3.416-3.023l.005-.003.01-.008c1.418-1.183 2.63-2.056 3.616-3.1.49-.52.92-1.093 1.242-1.757.324-.665.53-1.412.607-2.237.016-.173.025-.358.025-.56 0-.562-.066-1.24-.253-1.973-.28-1.092-.848-2.322-1.93-3.29C10.888.627 9.316-.008 7.29 0 5.665-.003 4.33.42 3.312 1.107c-.764.513-1.343 1.162-1.77 1.83C.905 3.943.593 4.99.428 5.832.265 6.674.25 7.315.25 7.526c0 .038 0 .063.002.072l1.974-.053.303-.004v-.015c-.007-.176.04-1.62.664-2.857.31-.622.74-1.188 1.367-1.61.63-.42 1.474-.72 2.73-.725 1.058 0 1.832.208 2.418.506.873.45 1.386 1.12 1.722 1.88.33.753.443 1.588.44 2.144 0 .132-.006.247-.014.337-.055.577-.184 1.018-.38 1.42-.29.604-.765 1.156-1.484 1.803-.715.643-1.655 1.36-2.76 2.276-1.622 1.305-3.322 2.792-4.67 4.325-.673.77-1.26 1.55-1.704 2.352-.415.758-.707 1.546-.765 2.385h-.01l-.007.145v.008l-.006 2.18h14.155v-1l-.002-2.773z"/></svg>