<svg xmlns="http://www.w3.org/2000/svg" width="14.173" height="24.095" viewBox="0 0 14.173 24.095"><g fill="#FC0200"><path d="M8.206 7.79l5.877-5.25h.02v-.018l.006-.005-.008-.007V0H.572L.58 1.815V4.07h2.078V2.527l7.914.01-7.77 7.194 1.12 1.66c.847-.78 1.91-1.244 3.078-1.244 1.37 0 2.743.64 3.642 1.68.897 1.04 1.45 2.466 1.45 4.054 0 1.587-.553 3.012-1.45 4.053-.9 1.04-2.272 1.677-3.642 1.678-1.37 0-2.6-.64-3.5-1.68-.648-.752-1.117-1.707-1.327-2.777L.06 17.59c.68 3.716 3.53 6.504 6.94 6.505 3.917 0 7.234-3.68 7.234-8.216 0-4.065-2.66-7.43-6.028-8.09zM3.92 11.39"/></g></svg>