<svg xmlns="http://www.w3.org/2000/svg" width="14.173" height="24.095" viewBox="0 0 14.173 24.095"><path fill="#FC0200" d="M12.064 8.96c-1.312-1.62-3.192-2.675-5.287-2.674-1.308 0-2.535.416-3.59 1.122l-.004-5.032h9.365V0H.942v.83h-.01l.006 9.734 2.25-.002c.758-1.088 2.403-1.9 3.59-1.9 1.368 0 2.622.674 3.58 1.845.95 1.17 1.565 2.828 1.564 4.684 0 1.855-.614 3.514-1.565 4.684-.957 1.172-2.21 1.844-3.58 1.846-1.01 0-1.95-.367-2.766-1.027-.812-.66-1.49-1.624-1.908-2.78L0 18.763c.56 1.536 1.47 2.858 2.636 3.81 1.166.95 2.6 1.523 4.142 1.522h.005c2.093 0 3.972-1.055 5.282-2.675 1.318-1.624 2.107-3.822 2.108-6.23 0-2.407-.79-4.606-2.11-6.23z"/></svg>