<svg xmlns="http://www.w3.org/2000/svg" width="14.173" height="24.095" viewBox="0 0 14.173 24.095"><path fill="#FC0200" d="M12.35 9.32c-.604-.793-1.36-1.446-2.235-1.894-.876-.447-1.872-.69-2.94-.688h-.077c-1.075.012-2.075.284-2.95.768-.58.32-1.1.737-1.56 1.218.04-.248.083-.488.125-.708.133-.677.264-1.214.36-1.576.05-.18.088-.318.115-.41l.03-.097.006-.02V5.91l.01-.03.007-.026.003-.005c.023-.084.296-.938.913-1.737.32-.417.727-.82 1.237-1.128.51-.31 1.13-.53 1.924-.576.113-.008.22-.01.325-.01 1.412.004 2.34.502 2.952.986.304.243.523.484.66.656.067.086.115.154.144.194.013.02.02.034.025.04l.002.003.544-.388 1.303-.895c-.053-.09-.478-.818-1.39-1.55C10.97.715 9.547-.003 7.642 0c-.14 0-.285.004-.433.012-1.155.06-2.147.416-2.946.917-1.203.752-1.97 1.802-2.44 2.648-.428.774-.62 1.393-.665 1.55C1.045 5.488 0 8.874 0 13.503c0 .85.044 1.75.127 2.67.096 2.11.758 4.014 1.9 5.437 1.227 1.54 3.025 2.484 5.06 2.484h.02c1.072 0 2.072-.255 2.952-.723 1.323-.698 2.362-1.863 3.055-3.266.695-1.405 1.056-3.053 1.058-4.785 0-2.286-.615-4.41-1.823-6zm-1.726 10.573c-.426.565-.932 1.01-1.513 1.32-.582.306-1.243.482-2 .482-1.444-.006-2.59-.622-3.442-1.67-.746-.93-1.245-2.226-1.35-3.763h.01c-.01-.094-.012-.183-.02-.275-.006-.114-.014-.227-.014-.344-.002-1.828.502-3.485 1.343-4.64.42-.578.92-1.035 1.496-1.353.576-.318 1.23-.502 1.985-.51h.056c.776 0 1.44.17 2.018.463.863.443 1.544 1.173 2.033 2.152.485.978.763 2.204.763 3.566 0 1.823-.514 3.446-1.364 4.573z"/></svg>