<svg xmlns="http://www.w3.org/2000/svg" width="14.173" height="24.095" viewBox="0 0 14.173 24.095"><path fill="#FC0200" d="M12.053 11.937c-.37-.363-.78-.68-1.22-.953.188-.146.368-.298.538-.464 1.116-1.09 1.838-2.652 1.836-4.383.002-1.73-.72-3.292-1.835-4.383C10.258.658 8.74 0 7.088 0c-1.655 0-3.17.658-4.285 1.753C1.688 2.843.967 4.405.968 6.136c0 1.73.72 3.292 1.834 4.383.17.166.352.318.538.463-.438.274-.85.59-1.22.953C.83 13.2 0 15.002 0 17c0 1.998.83 3.8 2.12 5.063 1.29 1.268 3.047 2.03 4.967 2.03 1.92 0 3.676-.763 4.966-2.03 1.29-1.263 2.123-3.066 2.12-5.063.003-1.998-.83-3.8-2.12-5.063zM4.26 3.53c.706-.692 1.704-1.14 2.825-1.14h.002c1.123 0 2.12.448 2.826 1.14.705.7 1.108 1.608 1.11 2.606-.002 1-.405 1.908-1.11 2.606-.706.694-1.703 1.142-2.826 1.14-1.122 0-2.12-.447-2.826-1.14-.703-.698-1.108-1.607-1.11-2.606.002-.998.407-1.907 1.11-2.605zm6.244 16.647c-.854.84-2.063 1.383-3.417 1.382-1.354 0-2.563-.542-3.418-1.383C2.812 19.33 2.32 18.22 2.316 17c.002-1.22.496-2.33 1.352-3.178.854-.84 2.06-1.382 3.415-1.382h.002c1.354 0 2.563.542 3.417 1.382.856.847 1.352 1.957 1.353 3.178-.002 1.22-.497 2.33-1.353 3.177z"/></svg>