<svg xmlns="http://www.w3.org/2000/svg" width="14.173" height="24.095" viewBox="0 0 14.173 24.095"><path fill="#FC0200" d="M13.978 7.375c-.127-1.936-.775-3.68-1.857-4.997C10.917.905 9.15 0 7.15 0h-.02c-1.053 0-2.035.244-2.9.69-1.3.672-2.318 1.786-3 3.13C.548 5.163.193 6.74.19 8.4c.003 2.188.606 4.222 1.792 5.743.594.76 1.334 1.385 2.195 1.813s1.838.66 2.89.658h.073c1.055-.01 2.037-.27 2.896-.735.73-.395 1.363-.934 1.9-1.57-.068 1.605-.326 3.525-1.06 4.933-.382.74-.872 1.338-1.538 1.77-.666.432-1.535.717-2.752.72-.887-.002-1.58-.21-2.156-.513-.86-.454-1.463-1.153-1.85-1.75-.193-.3-.328-.568-.414-.754l-.088-.21c-.01-.022-.016-.038-.018-.046l-.025.01L0 19.265c.033.09.416 1.233 1.428 2.423.506.594 1.176 1.197 2.037 1.653.86.456 1.91.755 3.123.754h.014c1.533 0 2.832-.382 3.87-1.057.78-.505 1.403-1.167 1.886-1.897.723-1.098 1.14-2.34 1.396-3.55.254-1.21.348-2.396.385-3.408.024-.707.034-1.394.034-2.042 0-2.382-.167-4.43-.196-4.765zm-3.44 5.158c-.41.554-.9.99-1.468 1.296-.564.303-1.207.48-1.95.488h-.054c-.762 0-1.416-.163-1.982-.444-.848-.423-1.518-1.123-1.996-2.06-.477-.936-.75-2.11-.748-3.415-.003-1.744.503-3.298 1.337-4.378.418-.54.914-.967 1.486-1.262s1.22-.46 1.967-.463c1.416.006 2.543.595 3.38 1.6.83 1.006 1.347 2.462 1.35 4.195 0 1.75-.495 3.337-1.32 4.44z"/></svg>