<svg xmlns="http://www.w3.org/2000/svg" width="14.173" height="24.095" viewBox="0 0 14.173 24.095"><path fill="#FC0200" d="M0 24.058V0h2.18v24.058H0M6.74 22.777c-.794-.816-1.304-1.98-1.302-3.262V4.58c0-1.283.508-2.446 1.302-3.263C7.533.497 8.62 0 9.806 0c1.185 0 2.27.497 3.066 1.317.793.817 1.303 1.98 1.3 3.262v14.936c.003 1.28-.507 2.445-1.3 3.262-.795.82-1.882 1.317-3.066 1.317-1.186 0-2.273-.497-3.066-1.318zM8.237 3.054c-.392.408-.617.937-.618 1.525v14.936c0 .588.225 1.116.617 1.525.392.406.943.667 1.568.667.625 0 1.176-.26 1.568-.666.393-.408.617-.937.618-1.524V4.58c0-.59-.225-1.118-.617-1.526-.393-.405-.943-.666-1.568-.666-.624 0-1.176.26-1.568.666z"/></svg>