<svg xmlns="http://www.w3.org/2000/svg" width="14.173" height="24.095" viewBox="0 0 14.173 24.095"><path fill="#FC0200" d="M14.173 0H5.91v2.34h3.14l.01 15.41.003.054c0 .018.006.092.006.208 0 .222-.018.597-.094 1.013-.112.63-.357 1.318-.81 1.815-.23.25-.512.468-.9.635-.39.165-.893.278-1.553.278H5.68c-.95-.007-1.584-.238-2.046-.543-.345-.23-.604-.516-.81-.834-.31-.477-.49-1.044-.59-1.538-.097-.492-.107-.903-.106-1.036v-.04-.011l.052-2.61-2.128-.052-.05 2.59-.002.124c.005.452.038 1.892.774 3.377.368.737.936 1.485 1.757 2.032.82.548 1.873.878 3.142.882h.051c1.17 0 2.152-.276 2.934-.758.59-.36 1.056-.83 1.406-1.335.528-.757.804-1.576.955-2.286.15-.71.177-1.32.178-1.702 0-.158-.005-.276-.01-.346l-.01-15.325h2.996V0z"/></svg>