<svg xmlns="http://www.w3.org/2000/svg" width="48" height="46" viewBox="0 0 48 46"><style>.a{fill:#E11F26;}</style><path d="M19.8 11.8c1.6 1.1-1.3 2.4-2.3 2.9-.2 1.3 1.7 3.1 2.3 1.7-.7 0-.7-1.6 0-1.7.7.1 1.6-.1 1.7.6-.1 1.6-1 2.4-2.9 2.3-.2 1.4-1.7 4.3-3.4 2.3-.3-1.8 1.4-2 2.3-1.1-1.2-4.9-3.5 2.4-5.7 0 3.7 10.6 17.7-6 8-7z" fill="none"/><path d="M39.8 40.5c-2.8 1.5-4.4 4.3-8 5.1-4.6-.9-10.2-9.1-3.4-11.4-2.1 2.5 2.5 2.2 2.3 4.6-.1 1-1 1.3-2.3 1.1.3-1.2 1.7-1.1.6-2.3-1 0-1.8.1-2.3.6.4 2.7 4.3 1.8 4 5.1H33V41c-1.3-.8-2.1 1.5-2.3 0 .2-.7.7-1.2 1.7-1.1.8.5 1.8.9 1.7 2.3 3.8-.2 3.4-5.4-1.1-4.6.3-3.3-1.7-4.3-5.1-4 .3-1.4 2.2-1.2 1.7-3.4-1.1-1.4-2.7-2.2-3.4-4-4.9-1.3-4.3 3-7.4 3.4-1.1 2.5 2.5 3.2 1.1 4H17c-1.1 1-1.4 2.8-2.3 4-2.6 0-3.7 1.6-3.4 4.6-1.2-.5-1.7-1.7-3.4-1.7-1.3 1.8-3.2 2.9-4.6 4.6-.1 3.5 3.2 3.6 4 6.3 2.1.8 3.3-2.4 4-1.1-.4 3.2 1.5 4.3 4 4.6-.4 3.2 3.5 4.4 5.1 2.3.2-2.3-2.6-1.5-2.9-3.4.5-.8.9-1.8 2.3-1.7-.9.9-.8 3.3 1.1 2.9 1.3-1.5.1-3.9-2.3-3.4-.6-1.3-1.7-3.8-3.4-2.3-.5 3.1 2.7 0 2.3 2.3-2.4 2.1-4-2.9-5.7-1.7 4.5-8.6 17.3 5 8 8.6 1.9 1.4-2.1 1.7-1.1 4 2.6-.4 1.9 2.8 3.4 3.4 3.5 1.5 5.4-1.4 7.4-4.6-1.1-1.3-1-3.2-1.1-3.4-.4-.6-1.8-.5-2.3-1.1-4.4-5.5 7.3-14.4 10.3-6.3-2.4-2.1-2.3 2-4.6 1.7-.7-.2-1.2-.7-1.1-1.7.8.2 1.1.8 2.3.6.1-4.2-3.1-1.2-3.4.6-1.6.3-3.2.6-2.9 2.9.8 0 1.3.3 1.7.6 1.5-1 .1-1.9 1.1-2.9 0 .8 1 .5 1.1 1.1.3 2.6-3 1.5-2.9 4 1.1.2 1.4 1.2 2.9 1.1 1.6-.5 1.9-2.2 2.9-3.4 3-.1 3.2-2.9 4-5.1.9.6 1.2 1.9 2.9 1.7 1.3-1 1.9-2.6 4-2.9 1.7-4.6-2.2-6.4-4.6-8.3zm-14.3-12c-.2 2.8.2 1.9 2.3 1.7.6 2.5-2.2 4.7-2.9 4-.2-1.4 1-1.2.6-2.9-1.1.1-.4 1.9-1.1 2.3-1.1-1-1.5-2.7-1.7-4.6.6-.4 1.5-.6 2.8-.5zm-3.4 1.8c.7 1.6 1.3 3.3 1.7 5.1-1.6-1.2-3.4-2.3-3.4-5.1h1.7zm-12 14.8c.7.8 3 1.1 0 1.1-.4.9 2.7.9 2.3 0 .6 1-2.1 3.6-4.6 3.4-.2-1.5.2-2.5 1.7-2.3-.8-1-3.1.7-4-1.1.2-.8 1-.9 1.1-1.7 1.4-.2 1.2 1 2.9.6-1-.5-2.6-1.4-1.1-2.9 2.1.4 2.8 2.2 4.6 2.9-.1 1.3-1.5-.7-2.9 0zm1.7-3.4c2.2 2.4 4.5-4.9 5.7 0-.8-.9-2.6-.6-2.3 1.1 1.7 2 3.3-.9 3.4-2.3 1.9.1 2.7-.7 2.9-2.3-.1-.7-1-.5-1.7-.6-.7.1-.7 1.7 0 1.7-.6 1.4-2.5-.5-2.3-1.7 1-.4 3.9-1.7 2.3-2.9 9.7 1.1-4.3 17.7-8 7zm8.6 20c0-2.7 2-3.3 2.9-5.1.5.9-.1 5.6-2.9 5.1zm7.4 0h-1.7c-.4-.5-.6-1.3-.6-2.3-1.7.8.8 2.2 0 4-1.3.2-2.2-.1-2.9-.6.3-3.3 1.9-3.7 2.3-5.7 1.5 1 2.8 2.2 2.9 4.6zm-3.4-9.2c-1.9-2.5-3.1-5.6-6.9-6.3 2.6-1.7 5.8-2.9 6.3-6.9 2 2.6 3 6.2 7.4 6.3-3 1.6-5.9 3.3-6.8 6.9zm14.2-5.7c.5 1 2.3.7 1.7 2.9-2.9.2-3.3-2-5.1-2.9.1-1.3 1.4.7 2.9 0-.1-.8-2.4-1.1 0-1.1-.5-1.7-1.8.3-2.9 0 1.4-1.2 3.4-3.9 5.1-2.9.3 1.5-.2 2.1-1.7 1.7 1.2 1.6 2.6-.6 4 .6.4 3.3-2 1.9-4 1.7zM39.8-5.5C37-4 35.4-1.2 31.8-.4c-4.6-.9-10.2-9.1-3.4-11.4-2.1 2.5 2.5 2.2 2.3 4.6-.1 1-1 1.3-2.3 1.1.3-1.2 1.7-1.1.6-2.3-1 0-1.8.1-2.3.6.4 2.7 4.3 1.8 4 5.1H33V-5c-1.3-.8-2.1 1.5-2.3 0 .2-.7.7-1.2 1.7-1.1.8.5 1.8.9 1.7 2.3 3.8-.2 3.4-5.4-1.1-4.6.3-3.3-1.7-4.3-5.1-4 .3-1.4 2.2-1.2 1.7-3.4-1.1-1.4-2.7-2.2-3.4-4-4.9-1.3-4.3 3-7.4 3.4-1.1 2.5 2.5 3.2 1.1 4H17c-1.1 1-1.4 2.8-2.3 4-2.6 0-3.7 1.6-3.4 4.6-1.2-.5-1.7-1.7-3.4-1.7C6.5-3.7 4.6-2.6 3.2-.9c-.1 3.5 3.3 3.6 4 6.2 2.1.8 3.3-2.4 4-1.1-.4 3.2 1.5 4.3 4 4.6-.4 3.2 3.5 4.4 5.1 2.3.2-2.3-2.6-1.5-2.9-3.4.5-.8.9-1.8 2.3-1.7-.9.9-.8 3.3 1.1 2.9 1.3-1.5.1-3.9-2.3-3.4-.6-1.3-1.7-3.8-3.4-2.3-.5 3.1 2.7 0 2.3 2.3-2.4 2.1-4-2.9-5.7-1.7 4.5-8.6 17.3 5 8 8.6 1.9 1.4-2.1 1.7-1.1 4 2.6-.4 1.9 2.8 3.4 3.4 3.5 1.5 5.4-1.4 7.4-4.6-1.1-1.3-1-3.2-1.1-3.4-.4-.6-1.8-.5-2.3-1.1-4.4-5.5 7.3-14.4 10.3-6.3-2.4-2.1-2.3 2-4.6 1.7-.7-.2-1.2-.7-1.1-1.7.8.2 1.1.8 2.3.6.1-4.2-3.1-1.2-3.4.6-1.6.3-3.2.6-2.9 2.9.8 0 1.3.3 1.7.6 1.5-1 .1-1.9 1.1-2.9 0 .8 1 .5 1.1 1.1.3 2.6-3 1.5-2.9 4 1.1.2 1.4 1.2 2.9 1.1 1.6-.5 1.9-2.2 2.9-3.4 3-.1 3.2-2.9 4-5.1.9.6 1.2 1.9 2.9 1.7 1.3-1 1.9-2.6 4-2.9 1.8-4.6-2.1-6.3-4.5-8.2zm-14.3-12c-.2 2.8.2 1.9 2.3 1.7.6 2.5-2.2 4.7-2.9 4-.2-1.4 1-1.2.6-2.9-1.1.1-.4 1.9-1.1 2.3-1.1-1-1.5-2.7-1.7-4.6.6-.4 1.5-.7 2.8-.5zm-3.4 1.7c.7 1.6 1.3 3.3 1.7 5.1-1.6-1.2-3.4-2.3-3.4-5.1h1.7zM10.1-.9c.7.8 3 1.1 0 1.1-.4.9 2.7.9 2.3 0 .6 1-2.1 3.6-4.6 3.4-.2-1.5.2-2.4 1.7-2.3-.8-.9-3.1.8-4-1.1.2-.8 1-.9 1.2-1.7 1.4-.2 1.2 1 2.9.6-1.1-.6-2.7-1.5-1.2-2.9 2.1.4 2.8 2.2 4.6 2.9-.1 1.2-1.5-.8-2.9 0zm1.7-3.5c2.2 2.4 4.5-4.9 5.7 0-.8-.9-2.6-.6-2.3 1.1 1.7 2 3.3-.9 3.4-2.3 1.9.1 2.7-.7 2.9-2.3-.1-.7-1-.5-1.7-.6-.7.1-.7 1.7 0 1.7-.6 1.4-2.5-.5-2.3-1.7 1-.4 3.9-1.7 2.3-2.9 9.7 1.2-4.3 17.7-8 7zm8.6 20c0-2.7 2-3.3 2.9-5.1.5.9-.1 5.7-2.9 5.1zm7.4 0h-1.7c-.4-.5-.6-1.3-.6-2.3-1.7.8.8 2.2 0 4-1.3.2-2.2-.1-2.9-.6.3-3.3 1.9-3.7 2.3-5.7 1.5 1.1 2.8 2.3 2.9 4.6zm-3.4-9.1C22.5 4 21.3.9 17.5.2c2.6-1.7 5.8-2.9 6.3-6.9 2 2.6 3 6.2 7.4 6.3-3 1.6-5.9 3.2-6.8 6.9zM38.6.8c.5 1 2.3.7 1.7 2.9-2.9.2-3.3-2-5.1-2.9.1-1.3 1.4.7 2.9 0-.1-.8-2.4-1.1 0-1.1-.5-1.7-1.8.3-2.9 0 1.4-1.2 3.4-3.9 5.1-2.9.3 1.5-.2 2.1-1.7 1.7 1.2 1.6 2.6-.6 4 .6.4 3.2-2 1.9-4 1.7zM15.8 17.5c-2.8 1.5-4.4 4.3-8 5.1-4.6-.9-10.2-9.1-3.4-11.4-2.1 2.5 2.5 2.2 2.3 4.6-.1 1-1 1.3-2.3 1.1.3-1.2 1.7-1.1.6-2.3-1 0-1.8.1-2.3.6.4 2.7 4.3 1.8 4 5.1H9V18c-1.3-.8-2.1 1.5-2.3 0 .2-.7.7-1.2 1.7-1.1.8.5 1.8.9 1.7 2.3 3.8-.2 3.4-5.4-1.1-4.6.3-3.3-1.7-4.3-5.1-4C4.1 9.3 6 9.5 5.5 7.3 4.4 5.9 2.8 5 2.1 3.3c-4.9-1.3-4.3 3-7.4 3.4-1.1 2.5 2.5 3.2 1.1 4h-2.9c-1.1 1-1.4 2.8-2.3 4-2.6 0-3.7 1.6-3.4 4.6-1.2-.5-1.7-1.7-3.4-1.7-1.3 1.8-3.2 2.9-4.6 4.6-.1 3.5 3.2 3.6 4 6.3 2.1.8 3.3-2.4 4-1.1-.4 3.2 1.5 4.3 4 4.6-.4 3.2 3.5 4.4 5.1 2.3.2-2.3-2.6-1.5-2.9-3.4.5-.8.9-1.8 2.3-1.7-.9.9-.8 3.3 1.1 2.9 1.3-1.5.1-3.9-2.3-3.4-.6-1.3-1.7-3.8-3.4-2.3-.5 3.1 2.7 0 2.3 2.3-2.4 2.1-4-2.9-5.7-1.7 4.5-8.6 17.3 5 8 8.6 1.9 1.4-2.1 1.7-1.1 4 2.6-.4 1.9 2.8 3.4 3.4 3.5 1.5 5.4-1.4 7.4-4.6-1.1-1.3-1-3.2-1.1-3.4-.4-.6-1.8-.5-2.3-1.1-4.4-5.5 7.3-14.4 10.3-6.3-2.4-2.1-2.3 2-4.6 1.7-.7-.2-1.2-.7-1.1-1.7.8.2 1.1.8 2.3.6.1-4.2-3.1-1.2-3.4.6-1.6.3-3.2.6-2.9 2.9.8 0 1.3.3 1.7.6 1.5-1 .1-1.9 1.1-2.9 0 .8 1 .5 1.1 1.1.3 2.6-3 1.5-2.9 4 1.1.2 1.4 1.2 2.9 1.1 1.6-.5 1.9-2.2 2.9-3.4 3-.1 3.2-2.9 4-5.1.9.6 1.2 1.9 2.9 1.7 1.3-1 1.9-2.6 4-2.9 1.8-4.7-2.1-6.5-4.5-8.4zM1.5 5.5c-.2 2.9.2 1.9 2.3 1.8.6 2.5-2.2 4.7-2.9 4-.2-1.4 1-1.2.6-2.9-1.1.1-.4 1.9-1.1 2.3-1.1-1-1.5-2.7-1.7-4.6.6-.5 1.5-.7 2.8-.6zm-3.4 1.8c.7 1.6 1.3 3.3 1.7 5.1-1.6-1.2-3.4-2.3-3.4-5.1h1.7zm-12 14.8c.7.8 3 1.1 0 1.1-.4.9 2.7.9 2.3 0 .6 1-2.1 3.6-4.6 3.4-.2-1.5.2-2.5 1.7-2.3-.8-1-3.1.7-4-1.1.2-.8 1-.9 1.1-1.7 1.4-.2 1.2 1 2.9.6-1-.5-2.6-1.4-1.1-2.9 2.1.4 2.8 2.2 4.6 2.9-.1 1.3-1.5-.7-2.9 0zm1.7-3.4c2.2 2.4 4.5-4.9 5.7 0-.8-.9-2.6-.6-2.3 1.1 1.7 2 3.3-.9 3.4-2.3 1.9.1 2.7-.7 2.9-2.3-.1-.7-1-.5-1.7-.6-.7.1-.7 1.7 0 1.7-.6 1.4-2.5-.5-2.3-1.7 1-.4 3.9-1.7 2.3-2.9 9.7 1.1-4.3 17.7-8 7zm8.6 20c0-2.7 2-3.3 2.9-5.1.5.9-.1 5.6-2.9 5.1zm7.4 0H2.1c-.4-.5-.6-1.3-.6-2.3-1.7.8.8 2.2 0 4-1.3.2-2.2-.1-2.9-.6.3-3.3 1.9-3.7 2.3-5.7 1.5 1 2.8 2.2 2.9 4.6zM.4 29.5c-1.9-2.5-3.1-5.6-6.9-6.3 2.6-1.7 5.8-2.9 6.3-6.9 2 2.6 3 6.2 7.4 6.3-3 1.6-5.9 3.3-6.8 6.9zm14.2-5.7c.5 1 2.3.7 1.7 2.9-2.9.2-3.3-2-5.1-2.9.1-1.3 1.4.7 2.9 0-.1-.8-2.4-1.1 0-1.1-.5-1.7-1.8.3-2.9 0 1.4-1.2 3.4-3.9 5.1-2.9.3 1.5-.2 2.1-1.7 1.7 1.2 1.6 2.6-.6 4 .6.4 3.3-2 1.9-4 1.7zM63.8 17.5c-2.8 1.5-4.4 4.3-8 5.1-4.6-.9-10.2-9.1-3.4-11.4-2.1 2.5 2.5 2.2 2.3 4.6-.1 1-1 1.3-2.3 1.1.3-1.2 1.7-1.1.6-2.3-1 0-1.8.1-2.3.6.4 2.7 4.3 1.8 4 5.1H57V18c-1.3-.8-2.1 1.5-2.3 0 .2-.7.7-1.2 1.7-1.1.8.5 1.8.9 1.7 2.3 3.8-.2 3.4-5.4-1.1-4.6.3-3.3-1.7-4.3-5.1-4 .3-1.4 2.2-1.2 1.7-3.4-1.1-1.4-2.7-2.2-3.4-4-4.9-1.3-4.3 3-7.4 3.4-1.1 2.5 2.5 3.2 1.1 4H41c-1.1 1-1.4 2.8-2.3 4-2.6 0-3.7 1.6-3.4 4.6-1.2-.5-1.7-1.7-3.4-1.7-1.3 1.8-3.2 2.9-4.6 4.6-.1 3.5 3.2 3.6 4 6.3 2.1.8 3.3-2.4 4-1.1-.4 3.2 1.5 4.3 4 4.6-.4 3.2 3.5 4.4 5.1 2.3.2-2.3-2.6-1.5-2.9-3.4.5-.8.9-1.8 2.3-1.7-.9.9-.8 3.3 1.1 2.9 1.3-1.5.1-3.9-2.3-3.4-.6-1.3-1.7-3.8-3.4-2.3-.5 3.1 2.7 0 2.3 2.3-2.4 2.1-4-2.9-5.7-1.7 4.5-8.6 17.3 5 8 8.6 1.9 1.4-2.1 1.7-1.1 4 2.6-.4 1.9 2.8 3.4 3.4 3.5 1.5 5.4-1.4 7.4-4.6-1.1-1.3-1-3.2-1.1-3.4-.4-.6-1.8-.5-2.3-1.1-4.4-5.5 7.3-14.4 10.3-6.3-2.4-2.1-2.3 2-4.6 1.7-.7-.2-1.2-.7-1.1-1.7.8.2 1.1.8 2.3.6.1-4.2-3.1-1.2-3.4.6-1.6.3-3.2.6-2.9 2.9.8 0 1.3.3 1.7.6 1.5-1 .1-1.9 1.1-2.9 0 .8 1 .5 1.1 1.1.3 2.6-3 1.5-2.9 4 1.1.2 1.4 1.2 2.9 1.1 1.6-.5 1.9-2.2 2.9-3.4 3-.1 3.2-2.9 4-5.1.9.6 1.2 1.9 2.9 1.7 1.3-1 1.9-2.6 4-2.9 1.7-4.6-2.2-6.4-4.6-8.3zm-14.3-12c-.2 2.8.2 1.9 2.3 1.7.6 2.5-2.2 4.7-2.9 4-.2-1.4 1-1.2.6-2.9-1.1.1-.4 1.9-1.1 2.3-1.1-1-1.5-2.7-1.7-4.6.6-.4 1.5-.6 2.8-.5zm-3.4 1.8c.7 1.6 1.3 3.3 1.7 5.1-1.6-1.2-3.4-2.3-3.4-5.1h1.7zm-12 14.8c.7.8 3 1.1 0 1.1-.4.9 2.7.9 2.3 0 .6 1-2.1 3.6-4.6 3.4-.2-1.5.2-2.5 1.7-2.3-.8-1-3.1.7-4-1.1.2-.8 1-.9 1.1-1.7 1.4-.2 1.2 1 2.9.6-1-.5-2.6-1.4-1.1-2.9 2.1.4 2.8 2.2 4.6 2.9-.1 1.3-1.5-.7-2.9 0zm1.7-3.4c2.2 2.4 4.5-4.9 5.7 0-.8-.9-2.6-.6-2.3 1.1 1.7 2 3.3-.9 3.4-2.3 1.9.1 2.7-.7 2.9-2.3-.1-.7-1-.5-1.7-.6-.7.1-.7 1.7 0 1.7-.6 1.4-2.5-.5-2.3-1.7 1-.4 3.9-1.7 2.3-2.9 9.7 1.1-4.3 17.7-8 7zm8.6 20c0-2.7 2-3.3 2.9-5.1.5.9-.1 5.6-2.9 5.1zm7.4 0h-1.7c-.4-.5-.6-1.3-.6-2.3-1.7.8.8 2.2 0 4-1.3.2-2.2-.1-2.9-.6.3-3.3 1.9-3.7 2.3-5.7 1.5 1 2.8 2.2 2.9 4.6zm-3.4-9.2c-1.9-2.5-3.1-5.6-6.9-6.3 2.6-1.7 5.8-2.9 6.3-6.9 2 2.6 3 6.2 7.4 6.3-3 1.6-5.9 3.3-6.8 6.9zm14.2-5.7c.5 1 2.3.7 1.7 2.9-2.9.2-3.3-2-5.1-2.9.1-1.3 1.4.7 2.9 0-.1-.8-2.4-1.1 0-1.1-.5-1.7-1.8.3-2.9 0 1.4-1.2 3.4-3.9 5.1-2.9.3 1.5-.2 2.1-1.7 1.7 1.2 1.6 2.6-.6 4 .6.4 3.3-2 1.9-4 1.7z" class="a"/></svg>