<svg xmlns="http://www.w3.org/2000/svg" width="50" height="50" viewBox="0 0 50 50"><path d="M24.807 3.588c-4.66 0-8.44 4.258-8.44 9.502 0 3 1.25 5.66 3.172 7.416.646.594.368 1.238-.293.836-1.198-.73-2.552-1.19-4.015-1.19-4.493 0-8.14 4.104-8.14 9.163 0 5.06 3.646 9.167 8.14 9.167 2.997 0 5.618-1.822 7.028-4.54.137-.267.246-.63.443-.63.266 0 .39.436.39 1.254 0 3.288-1.26 7.126-3.126 11.54.805-.19 3.248-.678 4.84-.678 1.597 0 4.037.486 4.845.68-1.867-4.416-3.13-8.254-3.13-11.542 0-.818.126-1.255.394-1.255.195 0 .305.365.44.632 1.41 2.718 4.03 4.54 7.026 4.54 4.496 0 8.14-4.106 8.14-9.167 0-5.06-3.644-9.164-8.14-9.164-1.46 0-2.814.464-4.018 1.192-.654.402-.936-.242-.285-.836 1.917-1.756 3.167-4.416 3.167-7.416 0-5.244-3.78-9.502-8.44-9.502z"/></svg>