<svg xmlns="http://www.w3.org/2000/svg" width="14.173" height="24.095" viewBox="0 0 14.173 24.095"><path fill="none" d="M10.61 17.407V5.005c0-.75-.288-1.418-.766-1.916-.478-.497-1.133-.803-1.87-.804h-1.64c-.737 0-1.393.308-1.87.804-.477.497-.764 1.166-.765 1.915v8.977c.563.104 1.145.252 1.705.476.54.216 1.064.5 1.53.898.89.768 1.5 1.6 1.964 2.358.372.615.655 1.176.914 1.637l.03-.027c.478-.498.765-1.168.766-1.916zM4.464 19.323c.478.495 1.133.803 1.87.803h1.474c-.103-.19-.204-.38-.308-.567-.476-.866-.99-1.698-1.897-2.485-.23-.2-.556-.39-.94-.54-.294-.118-.625-.21-.964-.287v1.16c0 .747.288 1.417.764 1.915z"/><path fill="#FC0200" d="M8.23 20.866c-.15-.246-.288-.494-.422-.74H6.334c-.737 0-1.393-.308-1.87-.803-.477-.498-.765-1.168-.766-1.916v-1.16c-.104-.024-.206-.053-.312-.073-.645-.123-1.302-.18-1.85-.2v1.434c0 1.384.542 2.645 1.41 3.544.866.9 2.07 1.458 3.384 1.46v-.066h.003v.066h1.64c.47 0 .92-.074 1.35-.206-.034-.03-.065-.055-.1-.087-.42-.383-.728-.82-.994-1.254zM2.96 13.864c.24.03.488.07.738.118V5.005c.002-.75.29-1.418.766-1.916.478-.497 1.133-.804 1.87-.805h1.64c.737 0 1.392.308 1.87.804.478.497.765 1.166.766 1.915v12.4c0 .75-.288 1.42-.766 1.917l-.03.028c.062.108.123.217.182.313.206.338.398.59.6.773.257.232.484.422.692.582.023-.023.05-.045.073-.07.87-.898 1.413-2.16 1.413-3.543v-12.4c0-1.385-.544-2.646-1.412-3.544C10.496.56 9.293.003 7.978 0H6.334C5.017.002 3.814.56 2.95 1.46c-.87.9-1.413 2.16-1.413 3.545v8.748c.422.015.906.045 1.424.11z"/><path fill="#FC0200" d="M12.375 21.654c-.24-.087-.48-.21-.77-.402-.1-.067-.207-.146-.318-.23-.208-.16-.436-.35-.69-.583-.203-.185-.396-.437-.602-.774-.06-.097-.12-.205-.182-.313-.26-.46-.542-1.02-.915-1.637-.464-.76-1.074-1.59-1.965-2.358-.465-.4-.99-.683-1.53-.898-.56-.224-1.14-.37-1.705-.476-.25-.047-.497-.087-.737-.118-.518-.065-1-.096-1.424-.11-.216-.007-.422-.012-.6-.012-.517 0-.848.023-.866.024l.144 2.214h.008c.047-.004.316-.02.716-.02.176 0 .38.003.6.012.548.022 1.205.078 1.85.2.105.022.207.05.312.074.34.077.67.17.964.286.385.152.71.34.94.54.908.788 1.422 1.62 1.897 2.485.105.187.206.376.31.566.133.246.27.494.42.74.266.435.575.87.994 1.252.035.032.066.057.102.087.404.362.782.67 1.153.92.6.405 1.207.67 1.83.808.624.14 1.24.162 1.935.162v-2.218c-.87 0-1.397-.05-1.87-.223z"/></svg>